<svg width="1200" height="1500" viewBox="0 0 1200 1500" fill="none" xmlns="http://www.w3.org/2000/svg">
  <rect width="1200" height="1500" fill="#030303"/>
  <path d="M0 1170C216 1082 366 1030 600 1030C834 1030 984 1082 1200 1170V1500H0V1170Z" fill="#090909"/>
  <circle cx="924" cy="310" r="238" fill="#FF69B4" fill-opacity="0.14"/>
  <circle cx="230" cy="214" r="182" fill="#00FFFF" fill-opacity="0.18"/>
  <g filter="url(#filter0_f_1_43)">
    <ellipse cx="602" cy="890" rx="316" ry="100" fill="#000000" fill-opacity="0.82"/>
  </g>
  <rect x="280" y="500" width="604" height="178" rx="89" transform="rotate(11 280 500)" fill="url(#paint0_linear_1_43)"/>
  <rect x="342" y="468" width="474" height="108" rx="54" transform="rotate(11 342 468)" fill="url(#paint1_linear_1_43)"/>
  <path d="M392 410L500 288H756L842 478" stroke="#FFF9FA" stroke-opacity="0.68" stroke-width="20" stroke-linecap="round" stroke-linejoin="round"/>
  <path d="M392 640L824 724" stroke="#FFF9FA" stroke-opacity="0.22" stroke-width="16" stroke-linecap="round"/>
  <path d="M368 692L800 776" stroke="#FFF9FA" stroke-opacity="0.16" stroke-width="12" stroke-linecap="round"/>
  <path d="M118 160H320" stroke="#00FFFF" stroke-opacity="0.52" stroke-width="4"/>
  <path d="M856 1288H1086" stroke="#FF69B4" stroke-opacity="0.6" stroke-width="4"/>
  <text x="106" y="1246" fill="#FFFFFF" fill-opacity="0.84" font-family="Arial, sans-serif" font-size="64" font-weight="700" letter-spacing="18">CUBANITO</text>
  <text x="106" y="1324" fill="#FFFFFF" fill-opacity="0.55" font-family="Arial, sans-serif" font-size="30" letter-spacing="10">DARK SUGAR NEON SERIES 02</text>
  <defs>
    <filter id="filter0_f_1_43" x="178" y="682" width="848" height="416" filterUnits="userSpaceOnUse" color-interpolation-filters="sRGB">
      <feFlood flood-opacity="0" result="BackgroundImageFix"/>
      <feBlend mode="normal" in="SourceGraphic" in2="BackgroundImageFix" result="shape"/>
      <feGaussianBlur stdDeviation="54" result="effect1_foregroundBlur_1_43"/>
    </filter>
    <linearGradient id="paint0_linear_1_43" x1="280" y1="589" x2="884" y2="589" gradientUnits="userSpaceOnUse">
      <stop stop-color="#4B2A12"/>
      <stop offset="0.52" stop-color="#B27A38"/>
      <stop offset="1" stop-color="#5B3014"/>
    </linearGradient>
    <linearGradient id="paint1_linear_1_43" x1="342" y1="522" x2="816" y2="522" gradientUnits="userSpaceOnUse">
      <stop stop-color="#F9E6C7" stop-opacity="0.44"/>
      <stop offset="0.5" stop-color="#FFF9F2" stop-opacity="0.72"/>
      <stop offset="1" stop-color="#FFDFC0" stop-opacity="0.34"/>
    </linearGradient>
  </defs>
</svg>
