<svg width="1200" height="1500" viewBox="0 0 1200 1500" fill="none" xmlns="http://www.w3.org/2000/svg">
  <rect width="1200" height="1500" fill="#010101"/>
  <circle cx="950" cy="205" r="188" fill="#00FFFF" fill-opacity="0.16"/>
  <circle cx="202" cy="332" r="232" fill="#FF69B4" fill-opacity="0.12"/>
  <path d="M0 0H1200V1500H0V0Z" fill="url(#paint0_radial_1_52)"/>
  <g filter="url(#filter0_f_1_52)">
    <ellipse cx="604" cy="820" rx="328" ry="102" fill="#000000" fill-opacity="0.8"/>
  </g>
  <rect x="234" y="594" width="732" height="188" rx="94" fill="url(#paint1_linear_1_52)"/>
  <rect x="286" y="556" width="628" height="112" rx="56" fill="url(#paint2_linear_1_52)"/>
  <path d="M334 520L448 342H768L874 520" stroke="#FFF9FA" stroke-opacity="0.66" stroke-width="20" stroke-linecap="round" stroke-linejoin="round"/>
  <path d="M334 682H866" stroke="#FFF9FA" stroke-opacity="0.25" stroke-width="16" stroke-linecap="round"/>
  <path d="M334 736H866" stroke="#FFF9FA" stroke-opacity="0.16" stroke-width="12" stroke-linecap="round"/>
  <rect x="132" y="112" width="134" height="28" rx="14" fill="#FF69B4" fill-opacity="0.52"/>
  <rect x="934" y="1262" width="134" height="28" rx="14" fill="#00FFFF" fill-opacity="0.5"/>
  <text x="106" y="1252" fill="#FFFFFF" fill-opacity="0.84" font-family="Arial, sans-serif" font-size="64" font-weight="700" letter-spacing="18">CUBANITO</text>
  <text x="106" y="1330" fill="#FFFFFF" fill-opacity="0.55" font-family="Arial, sans-serif" font-size="30" letter-spacing="10">DARK SUGAR NEON SERIES 03</text>
  <defs>
    <filter id="filter0_f_1_52" x="168" y="610" width="872" height="420" filterUnits="userSpaceOnUse" color-interpolation-filters="sRGB">
      <feFlood flood-opacity="0" result="BackgroundImageFix"/>
      <feBlend mode="normal" in="SourceGraphic" in2="BackgroundImageFix" result="shape"/>
      <feGaussianBlur stdDeviation="54" result="effect1_foregroundBlur_1_52"/>
    </filter>
    <radialGradient id="paint0_radial_1_52" cx="0" cy="0" r="1" gradientUnits="userSpaceOnUse" gradientTransform="translate(600 740) rotate(90) scale(760 860)">
      <stop stop-color="#080808" stop-opacity="0"/>
      <stop offset="1" stop-color="#000000" stop-opacity="0.82"/>
    </radialGradient>
    <linearGradient id="paint1_linear_1_52" x1="234" y1="688" x2="966" y2="688" gradientUnits="userSpaceOnUse">
      <stop stop-color="#533016"/>
      <stop offset="0.52" stop-color="#D09B59"/>
      <stop offset="1" stop-color="#5E3618"/>
    </linearGradient>
    <linearGradient id="paint2_linear_1_52" x1="286" y1="612" x2="914" y2="612" gradientUnits="userSpaceOnUse">
      <stop stop-color="#FFF0D1" stop-opacity="0.4"/>
      <stop offset="0.5" stop-color="#FFFDF9" stop-opacity="0.74"/>
      <stop offset="1" stop-color="#FFDFC2" stop-opacity="0.38"/>
    </linearGradient>
  </defs>
</svg>