<svg width="512" height="512" viewBox="0 0 512 512" fill="none" xmlns="http://www.w3.org/2000/svg">
  <rect width="512" height="512" rx="124" fill="#000000"/>
  <rect x="42" y="42" width="428" height="428" rx="94" stroke="#00FFFF" stroke-opacity="0.45" stroke-width="6"/>
  <rect x="62" y="62" width="388" height="388" rx="82" stroke="#FF69B4" stroke-opacity="0.65" stroke-width="6"/>
  <ellipse cx="256" cy="290" rx="138" ry="70" fill="url(#paint0_linear_1_11)"/>
  <path d="M146 282C146 254.386 168.386 232 196 232H316C343.614 232 366 254.386 366 282C366 309.614 343.614 332 316 332H196C168.386 332 146 309.614 146 282Z" fill="url(#paint1_linear_1_11)"/>
  <path d="M176 229L214 180H298L336 229" stroke="#FFF5F9" stroke-opacity="0.72" stroke-width="12" stroke-linecap="round" stroke-linejoin="round"/>
  <path d="M196 281H318" stroke="#FFF5F9" stroke-opacity="0.52" stroke-width="12" stroke-linecap="round"/>
  <circle cx="180" cy="154" r="20" fill="#FF69B4" fill-opacity="0.84"/>
  <circle cx="338" cy="146" r="16" fill="#00FFFF" fill-opacity="0.9"/>
  <defs>
    <linearGradient id="paint0_linear_1_11" x1="118" y1="290" x2="394" y2="290" gradientUnits="userSpaceOnUse">
      <stop stop-color="#FF69B4"/>
      <stop offset="1" stop-color="#00FFFF"/>
    </linearGradient>
    <linearGradient id="paint1_linear_1_11" x1="146" y1="282" x2="366" y2="282" gradientUnits="userSpaceOnUse">
      <stop stop-color="#3D250E"/>
      <stop offset="0.5" stop-color="#8A5422"/>
      <stop offset="1" stop-color="#4B2A0F"/>
    </linearGradient>
  </defs>
</svg>
