<svg width="192" height="192" viewBox="0 0 192 192" fill="none" xmlns="http://www.w3.org/2000/svg">
  <rect width="192" height="192" rx="44" fill="#000000"/>
  <rect x="18" y="18" width="156" height="156" rx="34" stroke="#00FFFF" stroke-opacity="0.45" stroke-width="2"/>
  <rect x="26" y="26" width="140" height="140" rx="28" stroke="#FF69B4" stroke-opacity="0.65" stroke-width="2"/>
  <ellipse cx="96" cy="110" rx="50" ry="26" fill="url(#paint0_linear_1_2)"/>
  <path d="M54 106C54 95.5066 62.5066 87 73 87H119C129.493 87 138 95.5066 138 106V106C138 116.493 129.493 125 119 125H73C62.5066 125 54 116.493 54 106V106Z" fill="url(#paint1_linear_1_2)"/>
  <path d="M66 86L80 69H112L126 86" stroke="#FFF5F9" stroke-opacity="0.7" stroke-width="4" stroke-linecap="round" stroke-linejoin="round"/>
  <path d="M72 106H120" stroke="#FFF5F9" stroke-opacity="0.5" stroke-width="4" stroke-linecap="round"/>
  <circle cx="67" cy="58" r="8" fill="#FF69B4" fill-opacity="0.8"/>
  <circle cx="126" cy="56" r="6" fill="#00FFFF" fill-opacity="0.85"/>
  <defs>
    <linearGradient id="paint0_linear_1_2" x1="46" y1="110" x2="146" y2="110" gradientUnits="userSpaceOnUse">
      <stop stop-color="#FF69B4"/>
      <stop offset="1" stop-color="#00FFFF"/>
    </linearGradient>
    <linearGradient id="paint1_linear_1_2" x1="54" y1="106" x2="138" y2="106" gradientUnits="userSpaceOnUse">
      <stop stop-color="#3D250E"/>
      <stop offset="0.5" stop-color="#8A5422"/>
      <stop offset="1" stop-color="#4B2A0F"/>
    </linearGradient>
  </defs>
</svg>
